<mxfile host="app.diagrams.net" agent="Mozilla/5.0 (Windows NT 10.0; Win64; x64) AppleWebKit/537.36 (KHTML, like Gecko) Chrome/129.0.0.0 Safari/537.36 Edg/129.0.0.0" version="24.7.16">
  <diagram name="Page-1" id="c7488fd3-1785-93aa-aadb-54a6760d102a">
    <mxGraphModel dx="1678" dy="881" grid="0" gridSize="10" guides="1" tooltips="1" connect="1" arrows="1" fold="1" page="1" pageScale="1" pageWidth="1100" pageHeight="850" background="none" math="0" shadow="0">
      <root>
        <mxCell id="0" />
        <mxCell id="1" parent="0" />
        <mxCell id="FWTdbX8XUFZsyjJT9uoj-2" value="&lt;font style=&quot;font-size: 14px;&quot;&gt;Trunk&lt;/font&gt;" style="shape=hexagon;perimeter=hexagonPerimeter2;whiteSpace=wrap;html=1;fixedSize=1;" parent="1" vertex="1">
          <mxGeometry x="210" y="10" width="120" height="80" as="geometry" />
        </mxCell>
        <mxCell id="FWTdbX8XUFZsyjJT9uoj-4" value="&lt;font style=&quot;font-size: 14px;&quot;&gt;Branch_SPRINT1&lt;/font&gt;" style="rounded=0;whiteSpace=wrap;html=1;fillColor=#ffe6cc;strokeColor=#d79b00;" parent="1" vertex="1">
          <mxGeometry x="37" y="309" width="120" height="60" as="geometry" />
        </mxCell>
        <mxCell id="UB-Tlhj-ID5tQu1dT7Rm-26" style="edgeStyle=orthogonalEdgeStyle;rounded=0;orthogonalLoop=1;jettySize=auto;html=1;" edge="1" parent="1" source="FWTdbX8XUFZsyjJT9uoj-5" target="FWTdbX8XUFZsyjJT9uoj-6">
          <mxGeometry relative="1" as="geometry">
            <mxPoint x="258" y="195.47058823529414" as="targetPoint" />
            <Array as="points">
              <mxPoint x="270" y="280" />
              <mxPoint x="270" y="280" />
            </Array>
          </mxGeometry>
        </mxCell>
        <mxCell id="FWTdbX8XUFZsyjJT9uoj-5" value="&lt;font style=&quot;font-size: 14px;&quot;&gt;Branch_SPRINT2&lt;/font&gt;" style="rounded=0;whiteSpace=wrap;html=1;fillColor=#ffe6cc;strokeColor=#d79b00;" parent="1" vertex="1">
          <mxGeometry x="198" y="309" width="120" height="60" as="geometry" />
        </mxCell>
        <mxCell id="UB-Tlhj-ID5tQu1dT7Rm-28" style="edgeStyle=orthogonalEdgeStyle;rounded=0;orthogonalLoop=1;jettySize=auto;html=1;entryX=0.5;entryY=0;entryDx=0;entryDy=0;" edge="1" parent="1" source="FWTdbX8XUFZsyjJT9uoj-6" target="FWTdbX8XUFZsyjJT9uoj-7">
          <mxGeometry relative="1" as="geometry" />
        </mxCell>
        <mxCell id="UB-Tlhj-ID5tQu1dT7Rm-31" style="edgeStyle=orthogonalEdgeStyle;rounded=0;orthogonalLoop=1;jettySize=auto;html=1;" edge="1" parent="1" source="FWTdbX8XUFZsyjJT9uoj-6" target="FWTdbX8XUFZsyjJT9uoj-4">
          <mxGeometry relative="1" as="geometry">
            <Array as="points">
              <mxPoint x="97" y="179" />
            </Array>
          </mxGeometry>
        </mxCell>
        <mxCell id="FWTdbX8XUFZsyjJT9uoj-6" value="&lt;font style=&quot;font-size: 14px;&quot;&gt;Branches&lt;/font&gt;" style="shape=parallelogram;perimeter=parallelogramPerimeter;whiteSpace=wrap;html=1;fixedSize=1;" parent="1" vertex="1">
          <mxGeometry x="210" y="130" width="120" height="60" as="geometry" />
        </mxCell>
        <mxCell id="UB-Tlhj-ID5tQu1dT7Rm-27" style="edgeStyle=orthogonalEdgeStyle;rounded=0;orthogonalLoop=1;jettySize=auto;html=1;entryX=1;entryY=0.5;entryDx=0;entryDy=0;" edge="1" parent="1" source="FWTdbX8XUFZsyjJT9uoj-7" target="FWTdbX8XUFZsyjJT9uoj-6">
          <mxGeometry relative="1" as="geometry">
            <Array as="points">
              <mxPoint x="417" y="160" />
            </Array>
          </mxGeometry>
        </mxCell>
        <mxCell id="UB-Tlhj-ID5tQu1dT7Rm-32" style="edgeStyle=orthogonalEdgeStyle;rounded=0;orthogonalLoop=1;jettySize=auto;html=1;entryX=0;entryY=0.5;entryDx=0;entryDy=0;" edge="1" parent="1" source="FWTdbX8XUFZsyjJT9uoj-7" target="FWTdbX8XUFZsyjJT9uoj-15">
          <mxGeometry relative="1" as="geometry">
            <Array as="points">
              <mxPoint x="509" y="358" />
              <mxPoint x="509" y="358" />
            </Array>
          </mxGeometry>
        </mxCell>
        <mxCell id="UB-Tlhj-ID5tQu1dT7Rm-35" style="edgeStyle=orthogonalEdgeStyle;rounded=0;orthogonalLoop=1;jettySize=auto;html=1;entryX=0.5;entryY=0;entryDx=0;entryDy=0;" edge="1" parent="1" source="FWTdbX8XUFZsyjJT9uoj-7" target="FWTdbX8XUFZsyjJT9uoj-20">
          <mxGeometry relative="1" as="geometry" />
        </mxCell>
        <mxCell id="FWTdbX8XUFZsyjJT9uoj-7" value="&lt;font style=&quot;font-size: 14px;&quot;&gt;Branch_SPRINT2&lt;/font&gt;" style="rounded=0;whiteSpace=wrap;html=1;fillColor=#d5e8d4;strokeColor=#82b366;" parent="1" vertex="1">
          <mxGeometry x="357" y="309" width="120" height="60" as="geometry" />
        </mxCell>
        <mxCell id="FWTdbX8XUFZsyjJT9uoj-9" style="edgeStyle=orthogonalEdgeStyle;rounded=0;orthogonalLoop=1;jettySize=auto;html=1;entryX=0;entryY=0.5;entryDx=0;entryDy=0;exitX=1;exitY=0.5;exitDx=0;exitDy=0;exitPerimeter=0;shape=link;" parent="1" source="FWTdbX8XUFZsyjJT9uoj-8" target="FWTdbX8XUFZsyjJT9uoj-2" edge="1">
          <mxGeometry relative="1" as="geometry" />
        </mxCell>
        <mxCell id="FWTdbX8XUFZsyjJT9uoj-10" style="edgeStyle=orthogonalEdgeStyle;rounded=0;orthogonalLoop=1;jettySize=auto;html=1;shape=link;" parent="1" source="FWTdbX8XUFZsyjJT9uoj-8" target="FWTdbX8XUFZsyjJT9uoj-6" edge="1">
          <mxGeometry relative="1" as="geometry" />
        </mxCell>
        <mxCell id="FWTdbX8XUFZsyjJT9uoj-8" value="&lt;font style=&quot;font-size: 14px;&quot;&gt;Repo Sistema XPTO&lt;/font&gt;" style="shape=cylinder3;whiteSpace=wrap;html=1;boundedLbl=1;backgroundOutline=1;size=15;" parent="1" vertex="1">
          <mxGeometry x="40" y="20" width="100" height="120" as="geometry" />
        </mxCell>
        <mxCell id="FWTdbX8XUFZsyjJT9uoj-14" value="Actor" style="shape=umlActor;verticalLabelPosition=bottom;verticalAlign=top;outlineConnect=0;html=1;shadow=0;" parent="1" vertex="1">
          <mxGeometry x="809" y="306" width="30" height="60" as="geometry" />
        </mxCell>
        <mxCell id="UB-Tlhj-ID5tQu1dT7Rm-34" style="edgeStyle=orthogonalEdgeStyle;rounded=0;orthogonalLoop=1;jettySize=auto;html=1;" edge="1" parent="1" source="FWTdbX8XUFZsyjJT9uoj-15">
          <mxGeometry relative="1" as="geometry">
            <mxPoint x="478.47058823529414" y="357.5" as="targetPoint" />
          </mxGeometry>
        </mxCell>
        <mxCell id="FWTdbX8XUFZsyjJT9uoj-15" value="&lt;font style=&quot;font-size: 13px;&quot;&gt;WC - DEV1&lt;/font&gt;" style="swimlane;whiteSpace=wrap;html=1;strokeColor=default;align=center;verticalAlign=top;fontFamily=Helvetica;fontSize=12;fontColor=default;fillColor=default;" parent="1" vertex="1">
          <mxGeometry x="580" y="330" width="200" height="55" as="geometry" />
        </mxCell>
        <mxCell id="FWTdbX8XUFZsyjJT9uoj-17" value="&lt;font style=&quot;font-size: 14px;&quot;&gt;Work Copy local&lt;/font&gt;" style="text;html=1;align=center;verticalAlign=middle;resizable=0;points=[];autosize=1;strokeColor=none;fillColor=none;fontFamily=Helvetica;fontSize=12;fontColor=default;" parent="FWTdbX8XUFZsyjJT9uoj-15" vertex="1">
          <mxGeometry x="35" y="26" width="120" height="29" as="geometry" />
        </mxCell>
        <mxCell id="FWTdbX8XUFZsyjJT9uoj-18" value="Actor" style="shape=umlActor;verticalLabelPosition=bottom;verticalAlign=top;outlineConnect=0;html=1;shadow=0;" parent="1" vertex="1">
          <mxGeometry x="662" y="491" width="30" height="60" as="geometry" />
        </mxCell>
        <mxCell id="FWTdbX8XUFZsyjJT9uoj-20" value="&lt;font style=&quot;font-size: 13px;&quot;&gt;WC - DEV2&lt;/font&gt;" style="swimlane;whiteSpace=wrap;html=1;strokeColor=default;align=center;verticalAlign=top;fontFamily=Helvetica;fontSize=12;fontColor=default;fillColor=default;" parent="1" vertex="1">
          <mxGeometry x="442" y="501" width="200" height="55" as="geometry" />
        </mxCell>
        <mxCell id="FWTdbX8XUFZsyjJT9uoj-21" value="&lt;font style=&quot;font-size: 14px;&quot;&gt;Work Copy local&lt;/font&gt;" style="text;html=1;align=center;verticalAlign=middle;resizable=0;points=[];autosize=1;strokeColor=none;fillColor=none;fontFamily=Helvetica;fontSize=12;fontColor=default;" parent="FWTdbX8XUFZsyjJT9uoj-20" vertex="1">
          <mxGeometry x="35" y="26" width="120" height="29" as="geometry" />
        </mxCell>
        <mxCell id="FWTdbX8XUFZsyjJT9uoj-31" value="&lt;h1 style=&quot;margin-top: 0px;&quot;&gt;Estrutura / Fluxo&lt;/h1&gt;&lt;p&gt;&lt;font style=&quot;font-size: 15px;&quot;&gt;A imagem representa a atual estrutura do repositÃ³rio no SVN e o fluxo de trabalho a cada Sprint.&lt;/font&gt;&lt;/p&gt;" style="text;html=1;whiteSpace=wrap;overflow=hidden;rounded=0;fontFamily=Helvetica;fontSize=12;fontColor=default;strokeWidth=1;" parent="1" vertex="1">
          <mxGeometry x="540" y="10" width="342" height="121" as="geometry" />
        </mxCell>
        <mxCell id="FWTdbX8XUFZsyjJT9uoj-32" value="&lt;div style=&quot;&quot;&gt;&lt;span style=&quot;font-size: 14px; background-color: initial;&quot;&gt;Sprint Fechada&lt;/span&gt;&lt;/div&gt;" style="rounded=0;whiteSpace=wrap;html=1;strokeColor=#d79b00;align=center;verticalAlign=top;fontFamily=Helvetica;fontSize=12;fillColor=#ffe6cc;" parent="1" vertex="1">
          <mxGeometry x="10" y="620" width="120" height="60" as="geometry" />
        </mxCell>
        <mxCell id="FWTdbX8XUFZsyjJT9uoj-33" value="&lt;font style=&quot;font-size: 14px;&quot;&gt;Sprint Aberta&lt;/font&gt;" style="rounded=0;whiteSpace=wrap;html=1;strokeColor=#82b366;align=center;verticalAlign=top;fontFamily=Helvetica;fontSize=12;fillColor=#d5e8d4;" parent="1" vertex="1">
          <mxGeometry x="150" y="620" width="120" height="60" as="geometry" />
        </mxCell>
        <mxCell id="FWTdbX8XUFZsyjJT9uoj-34" value="&lt;font style=&quot;font-size: 15px;&quot;&gt;Legenda&lt;/font&gt;" style="text;html=1;align=center;verticalAlign=middle;whiteSpace=wrap;rounded=0;fontFamily=Helvetica;fontSize=12;fontColor=default;" parent="1" vertex="1">
          <mxGeometry x="10" y="580" width="60" height="30" as="geometry" />
        </mxCell>
        <mxCell id="UB-Tlhj-ID5tQu1dT7Rm-15" value="" style="endArrow=classic;startArrow=classic;html=1;rounded=0;entryX=0.5;entryY=1;entryDx=0;entryDy=0;exitX=0.5;exitY=0;exitDx=0;exitDy=0;" edge="1" parent="1" source="FWTdbX8XUFZsyjJT9uoj-6" target="FWTdbX8XUFZsyjJT9uoj-2">
          <mxGeometry width="50" height="50" relative="1" as="geometry">
            <mxPoint x="261" y="131" as="sourcePoint" />
            <mxPoint x="311" y="81" as="targetPoint" />
          </mxGeometry>
        </mxCell>
        <mxCell id="UB-Tlhj-ID5tQu1dT7Rm-25" style="edgeStyle=orthogonalEdgeStyle;rounded=0;orthogonalLoop=1;jettySize=auto;html=1;entryX=0.6;entryY=0.01;entryDx=0;entryDy=0;entryPerimeter=0;" edge="1" parent="1" source="FWTdbX8XUFZsyjJT9uoj-6" target="FWTdbX8XUFZsyjJT9uoj-5">
          <mxGeometry relative="1" as="geometry" />
        </mxCell>
        <mxCell id="UB-Tlhj-ID5tQu1dT7Rm-29" style="edgeStyle=orthogonalEdgeStyle;rounded=0;orthogonalLoop=1;jettySize=auto;html=1;entryX=0.002;entryY=0.817;entryDx=0;entryDy=0;entryPerimeter=0;" edge="1" parent="1" source="FWTdbX8XUFZsyjJT9uoj-4" target="FWTdbX8XUFZsyjJT9uoj-6">
          <mxGeometry relative="1" as="geometry">
            <Array as="points">
              <mxPoint x="97" y="179" />
            </Array>
          </mxGeometry>
        </mxCell>
        <mxCell id="UB-Tlhj-ID5tQu1dT7Rm-36" style="edgeStyle=orthogonalEdgeStyle;rounded=0;orthogonalLoop=1;jettySize=auto;html=1;entryX=0.5;entryY=1;entryDx=0;entryDy=0;" edge="1" parent="1" target="FWTdbX8XUFZsyjJT9uoj-7">
          <mxGeometry relative="1" as="geometry">
            <mxPoint x="542" y="488" as="sourcePoint" />
            <Array as="points">
              <mxPoint x="542" y="435" />
              <mxPoint x="417" y="435" />
            </Array>
          </mxGeometry>
        </mxCell>
      </root>
    </mxGraphModel>
  </diagram>
</mxfile>
